<mxfile host="Electron" modified="2023-05-27T14:03:30.286Z" agent="Mozilla/5.0 (Macintosh; Intel Mac OS X 10_15_7) AppleWebKit/537.36 (KHTML, like Gecko) draw.io/21.2.1 Chrome/112.0.5615.87 Electron/24.1.2 Safari/537.36" etag="cJMfI9BYPCFzdLlFCRkg" version="21.2.1" type="device">
  <diagram name="Page-1" id="H1nZVYqxkzLZFgEqRADx">
    <mxGraphModel dx="470" dy="2675" grid="1" gridSize="10" guides="1" tooltips="1" connect="1" arrows="1" fold="1" page="1" pageScale="1" pageWidth="850" pageHeight="1100" math="0" shadow="0">
      <root>
        <mxCell id="0" />
        <mxCell id="1" parent="0" />
        <mxCell id="AsBp8XiL8Dx4Y6rQVwFH-1722" value="R, W: 99, H: 96, ORDER: 12, GC: {41, 27, 31, 14, 13, 10, 12, 1, 21, 11, 55, 44} " style="text;html=1;strokeColor=none;fillColor=none;align=center;verticalAlign=middle;whiteSpace=wrap;rounded=0;" parent="1" vertex="1">
          <mxGeometry x="1090" width="990" height="30" as="geometry" />
        </mxCell>
        <mxCell id="xfKqODWxrun5QzNKsqie-1" value="R, W: 99, H: 96, ORDER: 19, GC: {42, 20, 14, 23, 5, 9, 1, 4, 10, 8, 3, 11, 2, 6, 12, 28, 17, 54, 45} " style="text;html=1;strokeColor=none;fillColor=none;align=center;verticalAlign=middle;whiteSpace=wrap;rounded=0;" vertex="1" parent="1">
          <mxGeometry x="1090" y="1110" width="990" height="30" as="geometry" />
        </mxCell>
        <mxCell id="xfKqODWxrun5QzNKsqie-21" value="" style="group;flipV=1;" vertex="1" connectable="0" parent="1">
          <mxGeometry x="1090" y="1160" width="990" height="960" as="geometry" />
        </mxCell>
        <mxCell id="xfKqODWxrun5QzNKsqie-2" value="42" style="rounded=0;whiteSpace=wrap;html=1;" vertex="1" parent="xfKqODWxrun5QzNKsqie-21">
          <mxGeometry y="540" width="420" height="420" as="geometry" />
        </mxCell>
        <mxCell id="xfKqODWxrun5QzNKsqie-3" value="20" style="rounded=0;whiteSpace=wrap;html=1;" vertex="1" parent="xfKqODWxrun5QzNKsqie-21">
          <mxGeometry x="420" y="760" width="200" height="200" as="geometry" />
        </mxCell>
        <mxCell id="xfKqODWxrun5QzNKsqie-4" value="14" style="rounded=0;whiteSpace=wrap;html=1;" vertex="1" parent="xfKqODWxrun5QzNKsqie-21">
          <mxGeometry x="620" y="820" width="140" height="140" as="geometry" />
        </mxCell>
        <mxCell id="xfKqODWxrun5QzNKsqie-5" value="23" style="rounded=0;whiteSpace=wrap;html=1;" vertex="1" parent="xfKqODWxrun5QzNKsqie-21">
          <mxGeometry x="760" y="730" width="230" height="230" as="geometry" />
        </mxCell>
        <mxCell id="xfKqODWxrun5QzNKsqie-6" value="5" style="rounded=0;whiteSpace=wrap;html=1;" vertex="1" parent="xfKqODWxrun5QzNKsqie-21">
          <mxGeometry x="620" y="770" width="50" height="50" as="geometry" />
        </mxCell>
        <mxCell id="xfKqODWxrun5QzNKsqie-7" value="9" style="rounded=0;whiteSpace=wrap;html=1;" vertex="1" parent="xfKqODWxrun5QzNKsqie-21">
          <mxGeometry x="670" y="730" width="90" height="90" as="geometry" />
        </mxCell>
        <mxCell id="xfKqODWxrun5QzNKsqie-8" value="1" style="rounded=0;whiteSpace=wrap;html=1;" vertex="1" parent="xfKqODWxrun5QzNKsqie-21">
          <mxGeometry x="620" y="760" width="10" height="10" as="geometry" />
        </mxCell>
        <mxCell id="xfKqODWxrun5QzNKsqie-9" value="4" style="rounded=0;whiteSpace=wrap;html=1;" vertex="1" parent="xfKqODWxrun5QzNKsqie-21">
          <mxGeometry x="630" y="730" width="40" height="40" as="geometry" />
        </mxCell>
        <mxCell id="xfKqODWxrun5QzNKsqie-10" value="10" style="rounded=0;whiteSpace=wrap;html=1;" vertex="1" parent="xfKqODWxrun5QzNKsqie-21">
          <mxGeometry x="420" y="660" width="100" height="100" as="geometry" />
        </mxCell>
        <mxCell id="xfKqODWxrun5QzNKsqie-11" value="8" style="rounded=0;whiteSpace=wrap;html=1;" vertex="1" parent="xfKqODWxrun5QzNKsqie-21">
          <mxGeometry x="520" y="680" width="80" height="80" as="geometry" />
        </mxCell>
        <mxCell id="xfKqODWxrun5QzNKsqie-12" value="3" style="rounded=0;whiteSpace=wrap;html=1;" vertex="1" parent="xfKqODWxrun5QzNKsqie-21">
          <mxGeometry x="600" y="730" width="30" height="30" as="geometry" />
        </mxCell>
        <mxCell id="xfKqODWxrun5QzNKsqie-13" value="11" style="rounded=0;whiteSpace=wrap;html=1;" vertex="1" parent="xfKqODWxrun5QzNKsqie-21">
          <mxGeometry x="600" y="620" width="110" height="110" as="geometry" />
        </mxCell>
        <mxCell id="xfKqODWxrun5QzNKsqie-14" value="2" style="rounded=0;whiteSpace=wrap;html=1;" vertex="1" parent="xfKqODWxrun5QzNKsqie-21">
          <mxGeometry x="520" y="660" width="20" height="20" as="geometry" />
        </mxCell>
        <mxCell id="xfKqODWxrun5QzNKsqie-15" value="6" style="rounded=0;whiteSpace=wrap;html=1;" vertex="1" parent="xfKqODWxrun5QzNKsqie-21">
          <mxGeometry x="540" y="620" width="60" height="60" as="geometry" />
        </mxCell>
        <mxCell id="xfKqODWxrun5QzNKsqie-16" value="12" style="rounded=0;whiteSpace=wrap;html=1;" vertex="1" parent="xfKqODWxrun5QzNKsqie-21">
          <mxGeometry x="420" y="540" width="120" height="120" as="geometry" />
        </mxCell>
        <mxCell id="xfKqODWxrun5QzNKsqie-17" value="28" style="rounded=0;whiteSpace=wrap;html=1;" vertex="1" parent="xfKqODWxrun5QzNKsqie-21">
          <mxGeometry x="710" y="450" width="280" height="280" as="geometry" />
        </mxCell>
        <mxCell id="xfKqODWxrun5QzNKsqie-18" value="17" style="rounded=0;whiteSpace=wrap;html=1;" vertex="1" parent="xfKqODWxrun5QzNKsqie-21">
          <mxGeometry x="540" y="450" width="170" height="170" as="geometry" />
        </mxCell>
        <mxCell id="xfKqODWxrun5QzNKsqie-19" value="54" style="rounded=0;whiteSpace=wrap;html=1;" vertex="1" parent="xfKqODWxrun5QzNKsqie-21">
          <mxGeometry width="540" height="540" as="geometry" />
        </mxCell>
        <mxCell id="xfKqODWxrun5QzNKsqie-20" value="45" style="rounded=0;whiteSpace=wrap;html=1;" vertex="1" parent="xfKqODWxrun5QzNKsqie-21">
          <mxGeometry x="540" width="450" height="450" as="geometry" />
        </mxCell>
        <mxCell id="xfKqODWxrun5QzNKsqie-22" value="" style="group;flipV=1;" vertex="1" connectable="0" parent="1">
          <mxGeometry x="1090" y="50" width="990" height="960" as="geometry" />
        </mxCell>
        <mxCell id="761dnnyQ54j-Cl0NHfQN-1723" value="41" style="rounded=0;whiteSpace=wrap;html=1;" parent="xfKqODWxrun5QzNKsqie-22" vertex="1">
          <mxGeometry y="550" width="410" height="410" as="geometry" />
        </mxCell>
        <mxCell id="761dnnyQ54j-Cl0NHfQN-1724" value="27" style="rounded=0;whiteSpace=wrap;html=1;" parent="xfKqODWxrun5QzNKsqie-22" vertex="1">
          <mxGeometry x="410" y="690" width="270" height="270" as="geometry" />
        </mxCell>
        <mxCell id="761dnnyQ54j-Cl0NHfQN-1725" value="31" style="rounded=0;whiteSpace=wrap;html=1;" parent="xfKqODWxrun5QzNKsqie-22" vertex="1">
          <mxGeometry x="680" y="650" width="310" height="310" as="geometry" />
        </mxCell>
        <mxCell id="761dnnyQ54j-Cl0NHfQN-1726" value="14" style="rounded=0;whiteSpace=wrap;html=1;" parent="xfKqODWxrun5QzNKsqie-22" vertex="1">
          <mxGeometry x="410" y="550" width="140" height="140" as="geometry" />
        </mxCell>
        <mxCell id="761dnnyQ54j-Cl0NHfQN-1727" value="13" style="rounded=0;whiteSpace=wrap;html=1;" parent="xfKqODWxrun5QzNKsqie-22" vertex="1">
          <mxGeometry x="550" y="560" width="130" height="130" as="geometry" />
        </mxCell>
        <mxCell id="761dnnyQ54j-Cl0NHfQN-1728" value="10" style="rounded=0;whiteSpace=wrap;html=1;" parent="xfKqODWxrun5QzNKsqie-22" vertex="1">
          <mxGeometry x="680" y="550" width="100" height="100" as="geometry" />
        </mxCell>
        <mxCell id="761dnnyQ54j-Cl0NHfQN-1729" value="12" style="rounded=0;whiteSpace=wrap;html=1;" parent="xfKqODWxrun5QzNKsqie-22" vertex="1">
          <mxGeometry x="550" y="440" width="120" height="120" as="geometry" />
        </mxCell>
        <mxCell id="761dnnyQ54j-Cl0NHfQN-1730" value="1" style="rounded=0;whiteSpace=wrap;html=1;" parent="xfKqODWxrun5QzNKsqie-22" vertex="1">
          <mxGeometry x="670" y="550" width="10" height="10" as="geometry" />
        </mxCell>
        <mxCell id="761dnnyQ54j-Cl0NHfQN-1731" value="21" style="rounded=0;whiteSpace=wrap;html=1;" parent="xfKqODWxrun5QzNKsqie-22" vertex="1">
          <mxGeometry x="780" y="440" width="210" height="210" as="geometry" />
        </mxCell>
        <mxCell id="761dnnyQ54j-Cl0NHfQN-1732" value="11" style="rounded=0;whiteSpace=wrap;html=1;" parent="xfKqODWxrun5QzNKsqie-22" vertex="1">
          <mxGeometry x="670" y="440" width="110" height="110" as="geometry" />
        </mxCell>
        <mxCell id="761dnnyQ54j-Cl0NHfQN-1733" value="55" style="rounded=0;whiteSpace=wrap;html=1;" parent="xfKqODWxrun5QzNKsqie-22" vertex="1">
          <mxGeometry width="550" height="550" as="geometry" />
        </mxCell>
        <mxCell id="761dnnyQ54j-Cl0NHfQN-1734" value="44" style="rounded=0;whiteSpace=wrap;html=1;" parent="xfKqODWxrun5QzNKsqie-22" vertex="1">
          <mxGeometry x="550" width="440" height="440" as="geometry" />
        </mxCell>
      </root>
    </mxGraphModel>
  </diagram>
</mxfile>
